<svg width="24" height="24" viewBox="0 0 24 24" fill="none" xmlns="http://www.w3.org/2000/svg">
<path d="M8.99876 8.93336C8.99876 7.5459 8.05366 7.5459 8.05366 7.5459H4.17236V10.5204H7.81302C8.44179 10.5204 8.99876 10.3189 8.99876 8.93336ZM8.05366 12.5764H4.17236V16.1381H7.879C8.43597 16.1226 9.46645 15.9443 9.46645 14.4057C9.46063 12.5648 8.05366 12.5764 8.05366 12.5764ZM18.0034 10.5204C15.9405 10.5204 15.6532 12.5745 15.6532 12.5745H20.0391C20.0391 12.5745 20.0663 10.5204 18.0034 10.5204Z" fill="white"/>
<path d="M21.1705 0H2.83141C2.08047 0 1.36029 0.29787 0.8293 0.828082C0.298308 1.35829 0 2.07742 0 2.82725V21.1375C0 21.8874 0.298308 22.6065 0.8293 23.1367C1.36029 23.6669 2.08047 23.9648 2.83141 23.9648H21.1686C21.9195 23.9648 22.6397 23.6669 23.1707 23.1367C23.7017 22.6065 24 21.8874 24 21.1375V2.82725C24 2.07775 23.702 1.35892 23.1714 0.828767C22.6408 0.298611 21.9211 0.000513706 21.1705 0ZM15.0788 5.96067H20.5864V7.60393H15.0788V5.96067ZM12.294 14.5723C12.294 18.6416 8.05369 18.5079 8.05369 18.5079H1.10617V5.17586H8.05369C10.1651 5.17586 11.8321 6.33854 11.8321 8.72591C11.8321 11.1133 9.79445 11.2625 9.79445 11.2625C12.4803 11.2625 12.294 14.5723 12.294 14.5723ZM22.5969 14.3552H15.6882C15.6882 16.8317 18.0383 16.6806 18.0383 16.6806C20.2565 16.6806 20.173 15.2466 20.173 15.2466H22.5193C22.5193 19.0524 17.951 18.7908 17.951 18.7908C12.4687 18.7908 12.8219 13.6944 12.8219 13.6944C12.8219 13.6944 12.8219 8.57283 17.951 8.57283C23.3557 8.56895 22.5989 14.3552 22.5989 14.3552H22.5969Z" fill="white"/>
</svg>
