<svg width="61" height="60" viewBox="0 0 61 60" fill="none" xmlns="http://www.w3.org/2000/svg">
<path d="M30.5007 60.0014C47.0696 60.0014 60.5014 46.5696 60.5014 30.0007C60.5014 13.4318 47.0696 0 30.5007 0C13.9318 0 0.5 13.4318 0.5 30.0007C0.5 46.5696 13.9318 60.0014 30.5007 60.0014Z" fill="white"/>
<path d="M51.338 23.0039C51.3279 24.9634 50.6426 26.8597 49.3976 28.3729C48.1525 29.8861 46.4238 30.9239 44.5029 31.3113C43.9559 31.4197 43.3996 31.4746 42.8419 31.4753H34.7697C32.9146 34.8177 35.3302 38.9242 39.1551 38.9242H43.6977L40.0204 45.5461C36.8534 45.5672 33.8065 44.3347 31.5449 42.1176C27.8539 38.5018 26.547 32.6291 29.3932 27.5L31.1703 24.3025H43.3026C43.5859 24.3029 43.8641 24.2269 44.1078 24.0824C44.3971 23.9105 44.6248 23.6517 44.7585 23.3429C45.2151 22.2957 44.3853 21.131 43.2425 21.131H33.8907C27.7104 21.131 28.5484 20.5842 25.0843 25.8158C25.0801 25.819 25.0768 25.8233 25.0748 25.8281L19.2362 36.3542H11.6602L20.1097 21.1351H21.4767C28.0549 21.0709 27.18 21.2718 30.2845 16.4463L31.359 14.5147H42.8419C47.7837 14.5106 51.338 18.5679 51.338 23.0039Z" fill="#A2C859"/>
<path d="M12.9742 38.9248C12.3486 38.9259 11.7361 39.1042 11.2077 39.439C10.6792 39.7739 10.2565 40.2516 9.98838 40.8169C9.72028 41.3821 9.61781 42.0117 9.69285 42.6328C9.76788 43.2539 10.0173 43.8411 10.4123 44.3262C10.8073 44.8113 11.3317 45.1746 11.9247 45.374C12.5177 45.5734 13.155 45.6007 13.7629 45.4527C14.3707 45.3048 14.9243 44.9876 15.3593 44.5381C15.7943 44.0885 16.0931 43.5248 16.2209 42.9124C16.2209 42.9124 16.2209 42.9042 16.2209 42.9028C16.2647 42.6827 16.2871 42.4588 16.2879 42.2344C16.2877 41.7995 16.2019 41.3688 16.0352 40.9671C15.8686 40.5654 15.6244 40.2004 15.3167 39.8931C15.009 39.5858 14.6437 39.3421 14.2418 39.1759C13.8399 39.0098 13.4092 38.9244 12.9742 38.9248Z" fill="#A2C859"/>
<path d="M25.0711 14.4531C24.525 14.4542 23.9914 14.6171 23.5377 14.9211C23.084 15.2252 22.7306 15.6569 22.522 16.1617C22.3134 16.6664 22.2591 17.2217 22.3658 17.7573C22.4725 18.293 22.7355 18.785 23.1216 19.1713C23.5077 19.5576 23.9996 19.8208 24.5352 19.9278C25.0708 20.0348 25.6261 19.9807 26.1309 19.7724C26.6358 19.5641 27.0676 19.2108 27.372 18.7573C27.6763 18.3038 27.8394 17.7702 27.8407 17.2241C27.8404 16.4895 27.5485 15.7851 27.0292 15.2656C26.5099 14.7461 25.8057 14.4538 25.0711 14.4531ZM25.0602 19.4195C24.6261 19.413 24.2037 19.2783 23.846 19.0324C23.4882 18.7864 23.2113 18.4401 23.0499 18.0371C22.8885 17.6341 22.8499 17.1924 22.9389 16.7675C23.0279 16.3426 23.2406 15.9535 23.5503 15.6492C23.8599 15.3449 24.2526 15.1389 24.6789 15.0573C25.1053 14.9756 25.5463 15.0218 25.9465 15.1902C26.3466 15.3585 26.6881 15.6414 26.9278 16.0033C27.1676 16.3652 27.295 16.79 27.2939 17.2241C27.2916 17.515 27.232 17.8025 27.1184 18.0703C27.0049 18.3381 26.8396 18.5809 26.6322 18.7848C26.4247 18.9887 26.1791 19.1498 25.9094 19.2587C25.6396 19.3676 25.3511 19.4222 25.0602 19.4195Z" fill="#A2C859"/>
<path d="M26.0445 17.5619C25.9881 17.5531 25.9303 17.5622 25.8793 17.588C25.8283 17.6137 25.7866 17.6548 25.7602 17.7054C25.6591 17.8577 25.5101 17.9719 25.3367 18.0299C25.1633 18.0879 24.9756 18.0862 24.8033 18.0253C24.6751 17.9836 24.5587 17.9122 24.4636 17.8168C24.3684 17.7214 24.2973 17.6048 24.256 17.4766C24.2146 17.3483 24.2043 17.2121 24.2259 17.0791C24.2474 16.9462 24.3002 16.8202 24.3799 16.7116C24.4596 16.6029 24.564 16.5148 24.6844 16.4543C24.8048 16.3938 24.9378 16.3628 25.0725 16.3637C25.2072 16.3647 25.3398 16.3976 25.4593 16.4597C25.5789 16.5218 25.682 16.6114 25.7602 16.7212C25.7971 16.7704 25.8518 16.836 25.8969 16.8387C26.1129 16.8524 26.3302 16.8387 26.5476 16.8387C26.5189 16.2441 25.782 15.6672 25.0685 15.6631C24.6681 15.6627 24.2827 15.8154 23.9912 16.0899C23.6998 16.3643 23.5242 16.7398 23.5005 17.1395C23.454 17.9693 24.0787 18.6637 24.955 18.758C25.6754 18.8373 26.4587 18.2673 26.5681 17.5591C26.3904 17.5646 26.2168 17.5701 26.0445 17.5619Z" fill="#A2C859"/>
</svg>
