<svg width="50" height="50" viewBox="0 0 50 50" fill="none" xmlns="http://www.w3.org/2000/svg">
<path d="M25.0006 50.0011C38.808 50.0011 50.0011 38.808 50.0011 25.0006C50.0011 11.1931 38.808 0 25.0006 0C11.1931 0 0 11.1931 0 25.0006C0 38.808 11.1931 50.0011 25.0006 50.0011Z" fill="#A2C859"/>
<path d="M42.3652 19.1702C42.3568 20.8032 41.7857 22.3834 40.7481 23.6444C39.7106 24.9054 38.27 25.7702 36.6692 26.093C36.2134 26.1834 35.7498 26.2292 35.2851 26.2297H28.5582C27.0124 29.0151 29.0253 32.4372 32.2127 32.4372H35.9982L32.9338 37.9554C30.2946 37.973 27.7556 36.9459 25.8709 35.0983C22.7951 32.0852 21.706 27.1912 24.0778 22.917L25.5588 20.2524H35.669C35.9051 20.2528 36.1369 20.1894 36.34 20.069C36.5811 19.9258 36.7708 19.7101 36.8823 19.4527C37.2627 18.5801 36.5713 17.6095 35.6189 17.6095H27.8257C22.6755 17.6095 23.3738 17.1539 20.4871 21.5135C20.4836 21.5162 20.4808 21.5197 20.4791 21.5238L15.6137 30.2955H9.30029L16.3416 17.6129H17.4808C22.9625 17.5594 22.2335 17.7269 24.8206 13.7055L25.716 12.0959H35.2851C39.4033 12.0925 42.3652 15.4736 42.3652 19.1702Z" fill="white"/>
<path d="M10.395 32.4372C9.8737 32.4381 9.36328 32.5866 8.92291 32.8657C8.48254 33.1447 8.13024 33.5428 7.90682 34.0139C7.6834 34.4849 7.59801 35.0096 7.66054 35.5272C7.72307 36.0448 7.93096 36.534 8.26013 36.9383C8.58929 37.3426 9.02626 37.6454 9.52042 37.8115C10.0146 37.9777 10.5457 38.0004 11.0522 37.8771C11.5588 37.7538 12.02 37.4895 12.3826 37.1149C12.7451 36.7402 12.9941 36.2705 13.1006 35.7602C13.1006 35.7602 13.1006 35.7533 13.1006 35.7522C13.1371 35.5687 13.1558 35.3822 13.1564 35.1951C13.1563 34.8327 13.0847 34.4739 12.9459 34.1391C12.807 33.8043 12.6035 33.5002 12.3471 33.2441C12.0907 32.988 11.7863 32.7849 11.4513 32.6464C11.1164 32.508 10.7575 32.4369 10.395 32.4372Z" fill="white"/>
<path d="M20.4756 12.0446C20.0205 12.0455 19.5758 12.1812 19.1977 12.4346C18.8197 12.688 18.5251 13.0478 18.3513 13.4684C18.1775 13.889 18.1322 14.3518 18.2212 14.7981C18.3101 15.2445 18.5293 15.6545 18.851 15.9764C19.1728 16.2983 19.5827 16.5177 20.029 16.6069C20.4753 16.696 20.9381 16.6509 21.3588 16.4773C21.7795 16.3037 22.1394 16.0094 22.393 15.6314C22.6466 15.2535 22.7825 14.8089 22.7836 14.3537C22.7833 13.7416 22.5401 13.1546 22.1074 12.7217C21.6746 12.2887 21.0878 12.0452 20.4756 12.0446ZM20.4665 16.1833C20.1048 16.1779 19.7527 16.0656 19.4546 15.8606C19.1565 15.6557 18.9257 15.3671 18.7912 15.0313C18.6567 14.6954 18.6246 14.3273 18.6988 13.9732C18.773 13.6191 18.9502 13.2949 19.2082 13.0413C19.4662 12.7877 19.7935 12.6161 20.1488 12.5481C20.5041 12.48 20.8716 12.5185 21.2051 12.6588C21.5385 12.7991 21.8231 13.0348 22.0229 13.3364C22.2227 13.638 22.3288 13.992 22.3279 14.3537C22.326 14.5961 22.2763 14.8358 22.1817 15.059C22.0871 15.2821 21.9494 15.4845 21.7765 15.6544C21.6036 15.8243 21.3989 15.9585 21.1741 16.0492C20.9494 16.14 20.7089 16.1855 20.4665 16.1833Z" fill="white"/>
<path d="M21.2866 14.6351C21.2396 14.6278 21.1914 14.6354 21.1489 14.6569C21.1064 14.6783 21.0717 14.7125 21.0497 14.7547C20.9654 14.8817 20.8412 14.9768 20.6968 15.0251C20.5523 15.0734 20.3958 15.0721 20.2522 15.0213C20.1455 14.9866 20.0484 14.927 19.9692 14.8475C19.8899 14.7681 19.8306 14.6709 19.7961 14.564C19.7617 14.4572 19.7531 14.3437 19.7711 14.2328C19.789 14.122 19.833 14.017 19.8995 13.9265C19.9659 13.836 20.0528 13.7625 20.1532 13.7121C20.2535 13.6618 20.3643 13.6359 20.4766 13.6367C20.5889 13.6375 20.6993 13.6649 20.799 13.7166C20.8986 13.7684 20.9845 13.8431 21.0497 13.9345C21.0804 13.9755 21.126 14.0302 21.1636 14.0325C21.3436 14.0439 21.5247 14.0325 21.7058 14.0325C21.6819 13.5369 21.0679 13.0562 20.4732 13.0528C20.1396 13.0525 19.8185 13.1797 19.5755 13.4084C19.3326 13.6372 19.1863 13.9501 19.1666 14.2831C19.1278 14.9746 19.6485 15.5533 20.3787 15.6319C20.979 15.698 21.6318 15.2229 21.7229 14.6328C21.5748 14.6374 21.4301 14.642 21.2866 14.6351Z" fill="white"/>
</svg>
