<svg width="53" height="53" viewBox="0 0 53 53" fill="none" xmlns="http://www.w3.org/2000/svg">
<g clip-path="url(#clip0_3738_1098)">
<path d="M26.252 10.501C19.2518 10.501 14.8783 13.9996 13.127 20.9997C15.7511 17.5007 18.8146 16.1886 22.3136 17.0635C24.3115 17.5614 25.7393 19.0101 27.3204 20.6154C29.8937 23.2269 32.8723 26.2502 39.377 26.2502C46.3767 26.2502 50.7506 22.7511 52.502 15.7493C49.877 19.2502 46.8146 20.5629 43.3149 19.6877C41.3174 19.1893 39.8913 17.7411 38.3081 16.1357C35.7364 13.5242 32.7587 10.501 26.252 10.501ZM13.127 26.2502C6.12723 26.2502 1.75332 29.7492 0.00195312 36.751C2.62668 33.2502 5.68891 31.9374 9.18863 32.8127C11.1865 33.311 12.6143 34.7593 14.1954 36.3646C16.7687 38.9761 19.7473 41.9993 26.252 41.9993C33.2517 41.9993 37.6256 38.5007 39.377 31.5006C36.752 34.9997 33.6896 36.3118 30.1899 35.4368C28.1924 34.9389 26.7663 33.4902 25.1831 31.8849C22.6114 29.2734 19.6337 26.2502 13.127 26.2502Z" fill="#38BDF8"/>
</g>
<defs>
<clipPath id="clip0_3738_1098">
<rect width="52.5" height="52.5" fill="white"/>
</clipPath>
</defs>
</svg>
