<svg width="53" height="53" viewBox="0 0 53 53" fill="none" xmlns="http://www.w3.org/2000/svg">
<path d="M26.25 4.375C23.3773 4.375 20.5328 4.94081 17.8788 6.04014C15.2248 7.13946 12.8133 8.75076 10.782 10.782C6.67968 14.8844 4.375 20.4484 4.375 26.25C4.375 35.9188 10.6531 44.1219 19.3375 47.0312C20.4313 47.2062 20.7812 46.5281 20.7812 45.9375V42.2406C14.7219 43.5531 13.4312 39.3094 13.4312 39.3094C12.425 36.7719 11.0031 36.0938 11.0031 36.0938C9.0125 34.7375 11.1562 34.7812 11.1562 34.7812C13.3437 34.9344 14.5031 37.0344 14.5031 37.0344C16.4063 40.3594 19.6219 39.375 20.8687 38.85C21.0656 37.4281 21.6344 36.4656 22.2469 35.9188C17.3906 35.3719 12.2937 33.4906 12.2937 25.1562C12.2937 22.7281 13.125 20.7812 14.5469 19.2281C14.3281 18.6812 13.5625 16.4063 14.7656 13.4531C14.7656 13.4531 16.6031 12.8625 20.7812 15.6844C22.5094 15.2031 24.3906 14.9625 26.25 14.9625C28.1094 14.9625 29.9906 15.2031 31.7188 15.6844C35.8969 12.8625 37.7344 13.4531 37.7344 13.4531C38.9375 16.4063 38.1719 18.6812 37.9531 19.2281C39.375 20.7812 40.2062 22.7281 40.2062 25.1562C40.2062 33.5125 35.0875 35.35 30.2094 35.8969C30.9969 36.575 31.7188 37.9094 31.7188 39.9438V45.9375C31.7188 46.5281 32.0688 47.2281 33.1844 47.0312C41.8688 44.1 48.125 35.9188 48.125 26.25C48.125 23.3773 47.5592 20.5328 46.4599 17.8788C45.3605 15.2248 43.7492 12.8133 41.718 10.782C39.6867 8.75076 37.2752 7.13946 34.6212 6.04014C31.9672 4.94081 29.1227 4.375 26.25 4.375Z" fill="black"/>
</svg>
