<svg width="70" height="70" viewBox="0 0 70 70" fill="none" xmlns="http://www.w3.org/2000/svg">
<path d="M63.4589 11.0031L50.8458 4.93059C50.1336 4.5865 49.332 4.47281 48.5522 4.60531C47.7725 4.73782 47.0534 5.10994 46.4949 5.66996L5.20579 43.3125C4.70484 43.767 4.40497 44.402 4.37215 45.0776C4.33933 45.7533 4.57625 46.4143 5.03079 46.9153C5.08475 46.9736 5.1409 47.0298 5.19923 47.0837L8.57017 50.1462C9.01065 50.5471 9.57764 50.7811 10.1727 50.8074C10.7677 50.8338 11.3531 50.6509 11.8274 50.2906L61.5602 12.5781C61.9358 12.293 62.3836 12.1185 62.853 12.0741C63.3225 12.0297 63.795 12.1173 64.2174 12.3269C64.6398 12.5365 64.9953 12.8599 65.2439 13.2606C65.4925 13.6613 65.6243 14.1234 65.6245 14.595V14.4484C65.624 13.7286 65.4205 13.0236 65.0375 12.4141C64.6544 11.8047 64.1073 11.3157 63.4589 11.0031Z" fill="#0065A9"/>
<path d="M63.4589 58.9968L50.8458 65.0715C50.1333 65.414 49.332 65.5268 48.5526 65.3943C47.7733 65.2619 47.0542 64.8908 46.4949 64.3321L5.20579 26.6874C4.70484 26.2329 4.40497 25.5979 4.37215 24.9223C4.33933 24.2466 4.57625 23.5856 5.03079 23.0846C5.08475 23.0263 5.1409 22.9702 5.19923 22.9162L8.57017 19.8537C9.0111 19.4511 9.57938 19.2161 10.1759 19.1897C10.7724 19.1634 11.3592 19.3472 11.8339 19.7093L61.5602 57.4218C61.9358 57.7069 62.3836 57.8814 62.853 57.9258C63.3225 57.9702 63.795 57.8826 64.2174 57.673C64.6398 57.4634 64.9953 57.14 65.2439 56.7393C65.4925 56.3386 65.6243 55.8765 65.6245 55.4049V55.5625C65.6219 56.2804 65.4175 56.9831 65.0346 57.5904C64.6516 58.1977 64.1056 58.685 63.4589 58.9968Z" fill="#007ACC"/>
<path d="M50.846 65.0715C50.1335 65.414 49.3322 65.5268 48.5529 65.3944C47.7735 65.2619 47.0545 64.8908 46.4951 64.3322C46.8092 64.6422 47.2079 64.8526 47.6411 64.9371C48.0743 65.0215 48.5228 64.9762 48.9304 64.8069C49.338 64.6376 49.6865 64.3517 49.9323 63.9851C50.1781 63.6186 50.3103 63.1876 50.3123 62.7462V7.25373C50.3126 6.81029 50.1814 6.37673 49.9351 6.00796C49.6889 5.63918 49.3387 5.35179 48.929 5.18219C48.5193 5.01259 48.0685 4.96841 47.6336 5.05524C47.1988 5.14208 46.7995 5.35602 46.4863 5.66998C47.0446 5.10959 47.7636 4.73706 48.5433 4.60416C49.3231 4.47126 50.1249 4.5846 50.8373 4.92841L63.4482 10.9922C64.0986 11.3032 64.648 11.7916 65.033 12.4011C65.4181 13.0106 65.6232 13.7165 65.6248 14.4375V55.5625C65.6244 56.2829 65.4208 56.9886 65.0373 57.5984C64.6538 58.2083 64.1061 58.6975 63.457 59.01L50.846 65.0715Z" fill="#1F9CF0"/>
</svg>
