<svg width="56" height="46" viewBox="0 0 56 46" fill="none" xmlns="http://www.w3.org/2000/svg">
<g clip-path="url(#clip0_3738_1045)">
<path d="M31.5723 22.9612L37.0131 29.1804L44.33 33.8556L45.6027 23.0004L44.33 12.3901L36.8729 16.4972L31.5723 22.9612Z" fill="#00832D"/>
<path d="M0 32.8451V42.0953C0 44.2073 1.71443 45.9222 3.82694 45.9222H13.0771L14.9925 38.933L13.0771 32.8451L6.73082 30.9297L0 32.8451Z" fill="#0066DA"/>
<path d="M13.0771 0L0 13.0771L6.73126 14.9879L13.0771 13.0771L14.9576 7.07201L13.0771 0Z" fill="#E94235"/>
<path d="M0 32.8492H13.0769V13.0767H0V32.8492Z" fill="#2684FC"/>
<path d="M52.684 5.53698L44.3301 12.3903V33.8555L52.7184 40.7355C53.9742 41.7191 55.8111 40.8227 55.8111 39.2264V7.01552C55.8111 5.4016 53.9303 4.5095 52.6838 5.5372" fill="#00AC47"/>
<path d="M31.5726 22.9614V32.8455H13.0771V45.9226H40.5036C42.6161 45.9226 44.3303 44.2078 44.3303 42.0957V33.8558L31.5726 22.9614Z" fill="#00AC47"/>
<path d="M40.5036 0H13.0771V13.0771H31.5726V22.9612L44.3305 12.3899V3.82716C44.3305 1.71464 42.6161 0.00021801 40.5036 0.00021801" fill="#FFBA00"/>
</g>
<defs>
<clipPath id="clip0_3738_1045">
<rect width="55.8104" height="46" fill="white"/>
</clipPath>
</defs>
</svg>
