<svg width="53" height="54" viewBox="0 0 53 54" fill="none" xmlns="http://www.w3.org/2000/svg">
<g clip-path="url(#clip0_3738_1031)">
<path d="M31.2742 0.852539L36.6304 0.887812C36.7313 0.966152 36.8129 1.01742 36.8995 1.05598C37.8703 1.49484 38.9228 1.80902 39.7977 2.39227C42.3341 4.07801 44.811 5.85439 47.2863 7.62996C48.4368 8.45314 49.5709 9.31037 50.6315 10.2427C51.4198 10.935 51.7738 11.9173 51.7759 12.9649L51.7738 45.9295C51.7726 46.3893 51.6938 46.8622 51.5659 47.3044C50.9843 49.3199 49.6943 50.6992 47.6645 51.2378C46.5939 51.5212 45.4631 51.6094 44.3529 51.7008C42.6208 51.8448 40.8825 51.9154 39.1472 52.0195L35.8643 52.2246L30.6077 52.5339L27.3761 52.7357L22.0682 53.0433L19.3251 53.1557C19.2369 53.1602 19.1553 53.2836 19.0721 53.3525C16.9844 53.3525 14.8983 53.3525 12.793 53.3189C12.6921 53.2389 12.6154 53.1745 12.5256 53.1491C11.2532 52.7804 10.1864 52.0774 9.36612 51.0565C8.22998 49.6451 7.15045 48.1903 6.0578 46.7453C4.71494 44.9698 3.33723 43.2204 2.06821 41.394C1.32231 40.3268 0.922793 39.0559 0.92387 37.7539C0.920294 28.018 0.921525 18.2821 0.927562 8.54625C0.927562 8.2657 0.976781 7.98228 1.02518 7.70338C1.53459 4.70596 3.75354 3.10676 6.39248 2.81021C7.76241 2.65641 9.14176 2.5875 10.5182 2.49645L14.1563 2.28645L15.7203 2.18391L20.4371 1.77703L23.0518 1.57195L27.3826 1.26434L31.0207 1.04941C31.1093 1.04326 31.1909 0.921445 31.2742 0.852539ZM10.6413 47.5833C10.8595 47.8667 11.1027 48.1358 11.2934 48.4372C12.2179 49.8838 13.5431 50.4093 15.2268 50.2973L26.6329 49.6181L39.4691 48.8425L45.8602 48.4307C47.7543 48.2785 48.6689 47.2547 48.7058 45.3545V44.9443L48.7202 13.8287C48.7218 12.8914 48.3982 12.236 47.6485 11.7122L38.6152 5.34662C37.162 4.28924 35.6194 3.79582 33.8328 3.93691L23.7167 4.68504L13.1391 5.46516L6.49994 5.98277C5.15873 6.10582 4.32735 6.92613 4.087 8.24191C4.02856 8.57778 4.00014 8.91819 4.00209 9.2591L3.97461 36.4287C3.96518 38.2087 4.50987 39.6894 5.57545 41.0511L10.6413 47.5833Z" fill="white"/>
<path d="M10.6176 47.5556L5.57557 41.0505C4.50998 39.6888 3.9653 38.2085 3.97473 36.4285L4.00221 9.2589C4.00221 8.91929 4.02764 8.57476 4.08711 8.24171C4.32746 6.92634 5.15885 6.10603 6.50006 5.98257L13.1393 5.46496L23.7172 4.68484L33.8329 3.93671C35.6195 3.79562 37.1621 4.28904 38.6153 5.34642C41.5939 7.5141 44.6282 9.60507 47.6486 11.712C48.3983 12.2358 48.722 12.8912 48.7203 13.8285L48.706 44.9458V45.3559C48.669 47.2545 47.7544 48.2783 45.8603 48.4305C43.7328 48.6019 41.6004 48.7126 39.4692 48.8423L26.633 49.6175L15.227 50.2971C13.5433 50.4091 12.2181 49.8836 11.2936 48.437C11.1028 48.1356 10.8596 47.8665 10.6176 47.5556ZM13.2451 28.6917V42.427L13.2484 44.9888C13.2705 46.1377 13.8332 46.7099 14.9817 46.7755C15.27 46.7915 15.5616 46.7816 15.8516 46.764L25.4665 46.1972L43.8272 45.1476C44.9715 45.0836 45.5002 44.582 45.6072 43.4479C45.6281 43.244 45.6216 43.0377 45.6216 42.8326L45.6232 16.387C45.6232 16.2332 45.6281 16.0794 45.6187 15.9256C45.5498 14.8731 45.0978 14.4437 44.0519 14.4995L34.5892 15.0446C30.157 15.3024 25.7248 15.5619 21.2928 15.823L14.6454 16.2221C13.798 16.2763 13.4149 16.6417 13.2869 17.4702C13.2566 17.69 13.2432 17.9117 13.2467 18.1335L13.2451 28.6917ZM36.6945 7.06539C35.8919 6.6298 35.0203 6.48543 34.1229 6.53505C32.7435 6.61052 31.3641 6.72414 29.9844 6.8238L10.3178 8.25279C9.72348 8.29585 9.12588 8.33892 8.53936 8.44515C8.34248 8.48043 8.09393 8.67894 8.03323 8.85859C7.98811 8.98492 8.18703 9.24004 8.33264 9.37949C8.60211 9.63707 8.9126 9.85322 9.20627 10.0858C9.90313 10.6354 10.6447 11.1366 11.2841 11.744C12.497 12.8958 13.9083 13.1619 15.5251 13.0451L28.2543 12.2469L41.9577 11.4249C42.0828 11.4188 42.2079 11.3802 42.4831 11.329C42.2316 11.0677 42.0856 10.8675 41.8953 10.7264C41.224 10.2306 40.5462 9.7436 39.8622 9.26546C38.8112 8.525 37.7553 7.79163 36.6945 7.06539Z" fill="black"/>
<path d="M13.2451 28.6404L13.2468 18.1335C13.2468 17.912 13.2534 17.688 13.287 17.4702C13.415 16.6417 13.798 16.2767 14.6454 16.2221L21.2928 15.8231L34.5893 15.0446L44.0516 14.4995C45.0979 14.4437 45.5499 14.8744 45.6184 15.9256C45.6282 16.0794 45.6233 16.2332 45.6233 16.387L45.6217 42.8327L45.6073 43.4479C45.5002 44.582 44.9716 45.0836 43.8272 45.1476L25.4666 46.1972L15.8517 46.764L14.9822 46.7755C13.8333 46.7099 13.2706 46.1377 13.2484 44.9905L13.2451 42.427V28.6404ZM32.0164 28.6675L26.7385 20.6264C26.5543 20.3459 26.3734 20.2532 26.0338 20.2901L23.7841 20.4418L19.6456 20.7449C18.6284 20.838 18.0132 21.7945 18.295 22.7863L20.4869 22.9737V40.7306L18.9939 41.1518C18.3319 41.3471 18.0485 41.9049 18.2712 42.6177L23.3194 42.3278L25.3078 42.1645C26.1651 42.0234 26.6265 41.498 26.7417 40.6408L23.9814 40.0112V26.6553L24.1865 26.9424L30.5308 36.8485C31.4633 38.2952 32.4211 39.7254 33.4035 41.1387C34.1036 42.1436 35.1356 42.4512 36.2955 42.201C37.0215 42.046 37.7184 41.7511 38.4296 41.5218C38.7999 41.4016 38.9263 41.1806 38.9246 40.7655L38.9123 22.5135C38.9123 21.4467 38.9123 21.4467 39.9676 21.2338C41.0349 21.0189 41.3023 20.5928 41.0587 19.4521L34.6807 19.8397C33.9867 19.8893 33.4613 20.4693 33.3559 21.144C33.3042 21.4693 33.3715 21.6485 33.7608 21.6711L35.6918 21.8843V34.2625C34.4687 32.3967 33.2435 30.5322 32.0164 28.6692V28.6675ZM36.7295 7.08304C37.7765 7.80606 38.8204 8.53341 39.8614 9.26507C40.5456 9.74334 41.2235 10.2305 41.895 10.7265C42.0853 10.8676 42.2313 11.0677 42.4827 11.329L41.9573 11.425L28.254 12.2469L15.5248 13.0451C13.908 13.162 12.4966 12.8958 11.2838 11.7441C10.6443 11.137 9.90278 10.6354 9.20552 10.0858C8.91226 9.85324 8.60177 9.63708 8.33229 9.3791C8.18669 9.23964 7.98776 8.98535 8.03288 8.8582C8.09358 8.67896 8.34378 8.48044 8.53901 8.44517C9.12554 8.33935 9.72313 8.29587 10.3175 8.25281L29.9844 6.82382L34.1229 6.53507C35.0199 6.48585 35.8915 6.62941 36.7295 7.08304Z" fill="white"/>
<path d="M32.0385 28.6979L35.6918 34.2625V21.884L33.7612 21.6707C33.3715 21.6485 33.3043 21.4693 33.3555 21.144C33.4613 20.4693 33.9872 19.8894 34.6803 19.8397L41.0587 19.4521C41.3023 20.5924 41.0349 21.0189 39.9677 21.2335C38.9119 21.4451 38.9119 21.4451 38.9119 22.5136L38.9246 40.7655C38.9263 41.1806 38.7999 41.4017 38.4296 41.5218L36.2955 42.2011C35.1356 42.4496 34.1037 42.1436 33.4039 41.1388C32.4219 39.7252 31.4642 38.2949 30.5312 36.8485L24.1861 26.942C24.1414 26.8715 24.0901 26.8058 23.981 26.6553V40.0112L26.7418 40.6408C26.6265 41.498 26.1651 42.023 25.3078 42.1646C24.6541 42.2716 23.983 42.2876 23.3194 42.3278L18.2712 42.6178C18.0485 41.9049 18.3319 41.3471 18.9939 41.1519L20.4869 40.7306V22.9737L18.295 22.7863C18.0132 21.7946 18.6285 20.8381 19.6456 20.745C21.0221 20.6166 22.4048 20.5382 23.7841 20.4423C24.5339 20.391 25.2869 20.3717 26.0338 20.2901C26.3734 20.2532 26.5547 20.3459 26.7385 20.6264L32.0385 28.6979Z" fill="black"/>
</g>
<defs>
<clipPath id="clip0_3738_1031">
<rect width="52.5" height="52.5" fill="white" transform="translate(0 0.75)"/>
</clipPath>
</defs>
</svg>
