<svg width="54" height="53" viewBox="0 0 54 53" fill="none" xmlns="http://www.w3.org/2000/svg">
<g clip-path="url(#clip0_3738_886)">
<path d="M44.835 0H8.925C3.99586 0 0 3.99586 0 8.925V43.491C0 48.4201 3.99586 52.416 8.925 52.416H44.835C49.7641 52.416 53.76 48.4201 53.76 43.491V8.925C53.76 3.99586 49.7641 0 44.835 0Z" fill="#001E36"/>
<path d="M12.1055 36.7571V13.7121C12.1055 13.544 12.1776 13.4599 12.322 13.4597L12.5502 13.4591L12.9404 13.4549L13.4826 13.4442L15.2991 13.4057L17.2469 13.3696C17.9319 13.3577 18.6111 13.3517 19.2843 13.3516C21.1113 13.3516 22.6501 13.58 23.9005 14.0368C25.0287 14.4181 26.0575 15.0464 26.9119 15.876C27.6364 16.5949 28.1962 17.4624 28.5529 18.4187C28.8901 19.3492 29.0611 20.3319 29.0579 21.3217C29.0579 23.2454 28.6131 24.8323 27.7234 26.0822C26.8533 27.3016 25.6397 28.2342 24.2374 28.7609L24.117 28.805C22.6527 29.3513 21.0311 29.5487 19.2526 29.561L18.9762 29.5619L18.5661 29.5598L18.3593 29.5568L18.1287 29.5514L17.9897 29.5459L17.9052 29.5415L17.6976 29.534L17.4437 29.5287L17.0615 29.526L16.9764 29.5258V36.721C16.9827 36.7651 16.9787 36.8101 16.9646 36.8523C16.9505 36.8946 16.9268 36.933 16.8953 36.9645C16.8638 36.996 16.8254 37.0198 16.7831 37.0339C16.7408 37.0479 16.6959 37.052 16.6518 37.0457H12.3581C12.1895 37.0458 12.1053 36.9496 12.1055 36.7571ZM16.9766 17.7874V25.3037C17.2888 25.3279 17.5772 25.34 17.8418 25.3398H19.0321C19.8527 25.337 20.6686 25.2148 21.454 24.9772L21.6107 24.9282C22.3253 24.7162 22.9638 24.303 23.4501 23.738C23.902 23.205 24.1361 22.4705 24.1523 21.5346L24.1534 21.4298C24.1723 20.7322 23.9908 20.0438 23.6303 19.4464C23.2515 18.8684 22.7037 18.4213 22.0616 18.166C21.2233 17.84 20.3278 17.6867 19.4288 17.7154L18.9714 17.7166L18.6829 17.7191L18.4076 17.7227L18.0191 17.7303L17.7356 17.7383L17.5884 17.7437L17.3916 17.753L17.224 17.7632L17.1285 17.7708L17.0459 17.7788L17.0096 17.783L16.9766 17.7874ZM43.0019 23.937C42.3728 23.6138 41.7055 23.371 41.0157 23.2142L40.8561 23.1798C40.0973 23.0057 39.3226 22.9098 38.5443 22.8935L38.3498 22.8912C37.8935 22.8788 37.4378 22.9335 36.9974 23.0536C36.7171 23.1161 36.4679 23.2758 36.2939 23.5042C36.1763 23.6871 36.1137 23.9 36.1137 24.1174C36.1203 24.3283 36.1963 24.5311 36.33 24.6943C36.5214 24.9181 36.7516 25.1057 37.0094 25.2481L37.0875 25.2894C37.6017 25.5663 38.1315 25.8131 38.6742 26.0286C39.8845 26.434 41.041 26.9851 42.1182 27.6696C42.8522 28.1327 43.4595 28.771 43.8856 29.527C44.2437 30.2428 44.4231 31.0347 44.4085 31.8349C44.4299 32.8918 44.1279 33.93 43.5429 34.8104C42.9165 35.704 42.0464 36.3987 41.0363 36.8117C39.9785 37.2765 38.6795 37.5168 37.1394 37.5324L36.9793 37.5333C36.0246 37.5428 35.0711 37.4592 34.1326 37.2838L33.9318 37.2447C33.1416 37.0998 32.3724 36.8575 31.6418 36.5234C31.5683 36.4855 31.5062 36.4288 31.4618 36.3591C31.4175 36.2894 31.3925 36.2091 31.3893 36.1265V32.1957C31.385 32.1575 31.3911 32.1189 31.407 32.084C31.4229 32.049 31.448 32.0191 31.4796 31.9973C31.5106 31.9797 31.5462 31.972 31.5816 31.9752C31.617 31.9784 31.6506 31.9924 31.6779 32.0153C32.5407 32.524 33.4776 32.8951 34.4547 33.1153C35.316 33.3313 36.1996 33.4463 37.0875 33.458C37.9287 33.458 38.5478 33.3498 38.9447 33.1334C39.1239 33.0512 39.2754 32.919 39.381 32.7526C39.4866 32.5862 39.5418 32.3928 39.5399 32.1957C39.5399 31.8835 39.3595 31.583 38.9989 31.2942C38.8477 31.1732 38.6309 31.0416 38.3485 30.8994L38.2135 30.833L38.0694 30.7652L37.9938 30.7307L37.8355 30.6606L37.753 30.6249L37.5808 30.5527L37.4911 30.5159L37.305 30.4414L37.2084 30.4036L37.0083 30.3265L36.7989 30.2482C35.6664 29.8543 34.5926 29.3084 33.6072 28.6253C32.9022 28.1351 32.3217 27.4867 31.9122 26.7319C31.5577 26.0212 31.3784 25.236 31.3893 24.4419C31.3871 23.4876 31.6492 22.5514 32.1466 21.7371C32.7136 20.8404 33.5276 20.1264 34.4908 19.6816C35.5485 19.153 36.8708 18.8884 38.4577 18.888C39.3872 18.8805 40.3158 18.9469 41.2348 19.0865C41.9002 19.1709 42.5508 19.3469 43.168 19.6094C43.2674 19.6379 43.3474 19.7112 43.3843 19.8078C43.4089 19.8958 43.4209 19.9867 43.4205 20.0783V23.7207C43.4257 23.8068 43.3843 23.8894 43.3123 23.937C43.2641 23.961 43.211 23.9735 43.1571 23.9735C43.1033 23.9735 43.0501 23.961 43.0019 23.937Z" fill="#31A8FF"/>
</g>
<defs>
<clipPath id="clip0_3738_886">
<rect width="53.76" height="52.5" fill="white"/>
</clipPath>
</defs>
</svg>
