<svg width="70" height="70" viewBox="0 0 70 70" fill="none" xmlns="http://www.w3.org/2000/svg">
<g clip-path="url(#clip0_3726_665)">
<path d="M53.5938 0H16.4062C7.34533 0 0 7.34533 0 16.4062V53.5938C0 62.6547 7.34533 70 16.4062 70H53.5938C62.6547 70 70 62.6547 70 53.5938V16.4062C70 7.34533 62.6547 0 53.5938 0Z" fill="#242938"/>
<mask id="mask0_3726_665" style="mask-type:luminance" maskUnits="userSpaceOnUse" x="16" y="7" width="38" height="56">
<path d="M16.6797 7.65625H53.1453V62.3438H16.6797V7.65625Z" fill="white"/>
</mask>
<g mask="url(#mask0_3726_665)">
<path d="M25.7984 62.3438C30.8296 62.3438 34.9129 58.2605 34.9129 53.2293V44.1145H25.7984C20.7671 44.1145 16.6836 48.198 16.6836 53.2293C16.6836 58.2605 20.7671 62.3438 25.7984 62.3438Z" fill="#0ACF83"/>
<path d="M16.6836 35C16.6836 29.9687 20.7671 25.8855 25.7984 25.8855H34.9129V44.1145H25.7984C20.7671 44.1145 16.6836 40.0312 16.6836 35Z" fill="#A259FF"/>
<path d="M16.6836 16.7707C16.6836 11.7395 20.7671 7.65625 25.7984 7.65625H34.9129V25.8855H25.7984C20.7671 25.8855 16.6836 21.802 16.6836 16.7707Z" fill="#F24E1E"/>
<path d="M34.9131 7.65625H44.0276C49.0588 7.65625 53.1423 11.7395 53.1423 16.7707C53.1423 21.802 49.0588 25.8855 44.0276 25.8855H34.9131V7.65625Z" fill="#FF7262"/>
<path d="M53.1423 35C53.1423 40.0312 49.0588 44.1145 44.0276 44.1145C38.9963 44.1145 34.9131 40.0312 34.9131 35C34.9131 29.9687 38.9963 25.8855 44.0276 25.8855C49.0588 25.8855 53.1423 29.9687 53.1423 35Z" fill="#1ABCFE"/>
</g>
</g>
<defs>
<clipPath id="clip0_3726_665">
<rect width="70" height="70" fill="white"/>
</clipPath>
</defs>
</svg>
