<svg width="70" height="70" viewBox="0 0 70 70" fill="none" xmlns="http://www.w3.org/2000/svg">
<g clip-path="url(#clip0_3726_677)">
<path d="M12.4141 0.875H57.6406C64.4766 0.875 70.0547 6.39844 70.0547 13.2891V56.7656C70.0547 63.6016 64.5313 69.1797 57.6406 69.1797H12.4141C5.52344 69.125 0 63.6016 0 56.7109V13.2891C0 6.39844 5.52344 0.875 12.4141 0.875Z" fill="#330000"/>
<path d="M33.8515 41.7266H22.9687L20.7812 48.5625C20.7265 48.8359 20.5077 49 20.2343 48.9453H14.7655C14.4374 48.9453 14.3827 48.7813 14.4374 48.3984L23.8437 21.3828C23.953 21.1094 24.0077 20.7812 24.1171 20.3984C24.2265 19.7969 24.2812 19.1406 24.2812 18.4844C24.2265 18.3203 24.3905 18.2109 24.4999 18.1563H32.0468C32.2655 18.1563 32.3749 18.2656 32.4296 18.375L43.0937 48.3984C43.203 48.7266 43.0937 48.8906 42.8202 48.8906H36.6952C36.4765 48.9453 36.3124 48.7813 36.203 48.5625L33.8515 41.7266ZM24.664 35.7656H32.0468C31.8827 35.1641 31.664 34.3984 31.3905 33.6875C31.1171 32.9219 30.8437 32.0469 30.6249 31.1719C30.3515 30.2422 30.078 29.3672 29.8046 28.4922C29.5312 27.5625 29.2577 26.7422 29.039 25.9219C28.8202 25.1016 28.6015 24.3359 28.3827 23.625H28.328C28.0546 24.8828 27.7265 26.1406 27.3437 27.3984C26.9062 28.8203 26.4687 30.2422 25.9765 31.7188C25.539 33.1953 25.1015 34.5625 24.664 35.7656ZM49.6015 23.3516C48.6171 23.4063 47.6874 23.0234 47.0312 22.3125C46.3749 21.6016 45.9921 20.6172 46.0468 19.6328C45.9921 18.6484 46.3749 17.7188 47.0859 17.0625C47.7968 16.4063 48.7265 16.0234 49.6562 16.0234C50.8046 16.0234 51.6796 16.3516 52.3359 17.0625C52.9921 17.7734 53.3202 18.7031 53.3202 19.6328C53.3749 20.6172 52.9921 21.6016 52.2812 22.3125C51.5702 23.0234 50.5859 23.4063 49.6015 23.3516ZM46.3202 48.6719V26.1953C46.3202 25.9219 46.4296 25.8125 46.703 25.8125H52.4999C52.7734 25.8125 52.8827 25.9766 52.8827 26.1953V48.6719C52.8827 49 52.7734 49.1641 52.4999 49.1641H46.7577C46.4843 49.1094 46.3202 48.9453 46.3202 48.6719Z" fill="#FF9A00"/>
</g>
<defs>
<clipPath id="clip0_3726_677">
<rect width="70" height="70" fill="white"/>
</clipPath>
</defs>
</svg>
