<svg width="53" height="53" viewBox="0 0 53 53" fill="none" xmlns="http://www.w3.org/2000/svg">
<g clip-path="url(#clip0_3738_1106)">
<path d="M26.25 52.5C40.7475 52.5 52.5 40.7475 52.5 26.25C52.5 11.7525 40.7475 0 26.25 0C11.7525 0 0 11.7525 0 26.25C0 40.7475 11.7525 52.5 26.25 52.5Z" fill="black"/>
<path d="M43.6066 45.9432L20.1662 15.75H15.75V36.7414H19.2831V20.2367L40.8327 48.0797C41.8038 47.4301 42.7305 46.7163 43.6066 45.9432Z" fill="url(#paint0_linear_3738_1106)"/>
<path d="M33.542 15.75H37.0419V36.75H33.542V15.75Z" fill="url(#paint1_linear_3738_1106)"/>
</g>
<defs>
<linearGradient id="paint0_linear_3738_1106" x1="31.7916" y1="33.9791" x2="42.1458" y2="46.8124" gradientUnits="userSpaceOnUse">
<stop stop-color="white"/>
<stop offset="1" stop-color="white" stop-opacity="0"/>
</linearGradient>
<linearGradient id="paint1_linear_3738_1106" x1="35.2918" y1="15.75" x2="35.2332" y2="31.1718" gradientUnits="userSpaceOnUse">
<stop stop-color="white"/>
<stop offset="1" stop-color="white" stop-opacity="0"/>
</linearGradient>
<clipPath id="clip0_3738_1106">
<rect width="52.5" height="52.5" fill="white"/>
</clipPath>
</defs>
</svg>
