<svg width="53" height="53" viewBox="0 0 53 53" fill="none" xmlns="http://www.w3.org/2000/svg">
<g clip-path="url(#clip0_3738_1100)">
<path d="M39.5599 0H12.9401C5.7935 0 0 5.7935 0 12.9401V39.1901C0 46.3368 5.7935 52.1303 12.9401 52.1303H39.5599C46.7065 52.1303 52.5 46.3368 52.5 39.1901V12.9401C52.5 5.7935 46.7065 0 39.5599 0Z" fill="#FEF32A"/>
<path d="M4.80664 34.1989L11.4616 21.4436C12.0778 20.5193 13.9387 18.5968 16.4528 18.301C18.9669 18.0052 20.458 18.1778 20.8894 18.301L12.3859 34.1989H4.80664Z" fill="black"/>
<path d="M39.3757 18.1377L32.7208 30.893C32.1046 31.8173 30.2437 33.7398 27.7296 34.0356C25.2155 34.3314 23.7243 34.1588 23.293 34.0356L31.7965 18.1377H39.3757Z" fill="black"/>
<path d="M14.0488 34.0141L22.3675 18.1162H30.1316L21.8129 34.0141H14.0488Z" fill="black"/>
<path d="M43.8113 26.2501C46.1595 26.2501 48.0631 24.3465 48.0631 21.9983C48.0631 19.6502 46.1595 17.7466 43.8113 17.7466C41.4631 17.7466 39.5596 19.6502 39.5596 21.9983C39.5596 24.3465 41.4631 26.2501 43.8113 26.2501Z" fill="black"/>
</g>
<defs>
<clipPath id="clip0_3738_1100">
<rect width="52.5" height="52.1303" fill="white"/>
</clipPath>
</defs>
</svg>
