<svg width="246" height="59" viewBox="0 0 246 59" fill="none" xmlns="http://www.w3.org/2000/svg">
<g clip-path="url(#clip0_3928_19)">
<path d="M79.5477 36.8717V16.6704H92.0629V19.3696H82.7055V25.9561H90.7005V28.6553H82.7055V36.8717H79.5477Z" fill="black"/>
<path d="M96.3702 20.3832C95.1348 20.3832 94.2464 19.5664 94.2464 18.4971C94.2464 17.4278 95.1348 16.6147 96.3702 16.6147C97.6057 16.6147 98.4642 17.4019 98.4642 18.4971C98.4642 19.5924 97.602 20.3832 96.3702 20.3832ZM94.9332 36.8717V21.9612H97.8334V36.8717H94.9332Z" fill="black"/>
<path d="M100.778 29.4164C100.778 24.9128 103.764 21.679 107.87 21.679C111.629 21.679 114.357 24.1257 114.902 27.9907H111.86C111.524 25.6182 110.005 24.1814 107.87 24.1814C105.373 24.1814 103.738 26.2643 103.738 29.4164C103.738 32.5686 105.381 34.6477 107.87 34.6477C110.024 34.6477 111.517 33.2406 111.86 30.8236H114.876C114.357 34.7628 111.662 37.1799 107.844 37.1799C103.69 37.1799 100.778 33.972 100.778 29.4164Z" fill="black"/>
<path d="M126.395 36.6193C125.585 36.9868 124.702 37.1695 123.812 37.1539C120.997 37.1539 119.045 35.6688 119.045 32.3682V24.3782H115.686V21.9612H119.045V17.543H121.946V21.9612H126.533V24.3782H121.942V31.7221C121.942 33.7753 122.946 34.5067 124.495 34.5067C125.149 34.521 125.797 34.3863 126.391 34.1132L126.395 36.6193Z" fill="black"/>
<path d="M130.728 20.3832C129.493 20.3832 128.604 19.5664 128.604 18.4971C128.604 17.4278 129.493 16.6147 130.728 16.6147C131.964 16.6147 132.822 17.4019 132.822 18.4971C132.822 19.5924 131.964 20.3832 130.728 20.3832ZM129.291 36.8717V21.9612H132.191V36.8717H129.291Z" fill="black"/>
<path d="M137.589 36.8718V24.3783H134.229V21.9612H137.589V20.8474C137.589 17.9774 139.167 16.392 142.038 16.392C142.763 16.382 143.483 16.5079 144.162 16.7633V19.0727C143.686 18.888 143.179 18.8008 142.669 18.8165C141.291 18.8165 140.485 19.4365 140.485 20.8734V21.9427H144.736V24.3597H140.485V36.8718H137.589Z" fill="black"/>
<path d="M156.33 29.836V36.8903H153.172V16.6704H160.32C164.941 16.6704 167.927 18.9761 167.927 23.1975C167.927 27.4189 164.941 29.836 160.32 29.836H156.33ZM156.33 19.2879V27.2222H160.294C163.078 27.2222 164.773 25.7371 164.773 23.2272C164.773 20.7174 163.078 19.3065 160.294 19.3065L156.33 19.2879Z" fill="black"/>
<path d="M173.753 36.8717H170.857V21.9611H173.563V25.1096C174.627 23.0564 176.922 21.7681 179.419 21.7681V24.7197C176.149 24.5527 173.764 25.9598 173.764 29.2493L173.753 36.8717Z" fill="black"/>
<path d="M180.557 29.4164C180.557 24.9982 183.715 21.679 188.023 21.679C192.33 21.679 195.488 24.9982 195.488 29.4164C195.488 33.8346 192.33 37.1539 188.023 37.1539C183.715 37.1539 180.557 33.8346 180.557 29.4164ZM192.502 29.4164C192.502 26.1529 190.52 24.2185 188.023 24.2185C185.525 24.2185 183.573 26.1603 183.573 29.4164C183.573 32.6725 185.507 34.6477 188.019 34.6477C190.531 34.6477 192.498 32.6725 192.498 29.4164H192.502Z" fill="black"/>
<path d="M201.31 37.6032C201.31 41.0078 199.414 42.582 196.63 42.582C195.949 42.6115 195.268 42.5172 194.622 42.3036V39.6304C195.147 39.8524 195.716 39.9576 196.286 39.9385C197.578 39.9385 198.41 39.2628 198.41 37.5475V21.9537H201.31V37.6032ZM199.873 20.3832C198.642 20.3832 197.75 19.5664 197.75 18.4971C197.75 17.4278 198.642 16.6147 199.873 16.6147C201.105 16.6147 201.971 17.4019 201.971 18.4971C201.971 19.5924 201.109 20.3832 199.873 20.3832Z" fill="black"/>
<path d="M204.237 29.331C204.237 24.9128 207.309 21.679 211.5 21.679C216.035 21.679 219.047 25.2804 218.532 30.1181H207.193C207.424 33.1589 208.973 34.9448 211.526 34.9448C213.68 34.9448 215.173 33.7901 215.662 31.852H218.532C217.786 35.1712 215.173 37.1687 211.586 37.1687C207.193 37.1539 204.237 34.0314 204.237 29.331ZM207.223 28.2172H215.46C215.315 25.4586 213.796 23.799 211.44 23.799C209.085 23.799 207.529 25.4474 207.223 28.2357V28.2172Z" fill="black"/>
<path d="M220.219 29.4164C220.219 24.9128 223.205 21.679 227.311 21.679C231.07 21.679 233.798 24.1257 234.343 27.9907H231.305C230.988 25.5997 229.469 24.1628 227.345 24.1628C224.848 24.1628 223.209 26.2457 223.209 29.3979C223.209 32.55 224.848 34.6292 227.345 34.6292C229.495 34.6292 230.988 33.222 231.335 30.805H234.347C233.832 34.7443 231.133 37.1613 227.315 37.1613C223.153 37.1799 220.219 33.972 220.219 29.4164Z" fill="black"/>
<path d="M245.858 36.6193C245.048 36.9868 244.166 37.1695 243.275 37.1539C240.461 37.1539 238.509 35.6688 238.509 32.3682V24.3782H235.15V21.9612H238.509V17.543H241.409V21.9612H246V24.3782H241.409V31.7221C241.409 33.7753 242.413 34.5067 243.962 34.5067C244.616 34.521 245.265 34.3863 245.858 34.1132V36.6193Z" fill="black"/>
<path d="M53.7485 1.12292e-05H5.55401C4.08099 1.12292e-05 2.66831 0.582069 1.62673 1.61814C0.585153 2.65421 0 4.05942 0 5.52465L0 53.4642C0 54.9295 0.585153 56.3347 1.62673 57.3707C2.66831 58.4068 4.08099 58.9889 5.55401 58.9889H53.7485C54.4788 58.9903 55.2022 58.8485 55.8773 58.5715C56.5525 58.2946 57.1661 57.8878 57.683 57.3747C58.1999 56.8615 58.61 56.252 58.8898 55.581C59.1696 54.91 59.3137 54.1907 59.3137 53.4642V5.52465C59.3137 4.7982 59.1696 4.07889 58.8898 3.40789C58.61 2.73688 58.1999 2.12735 57.683 1.6142C57.1661 1.10104 56.5525 0.694331 55.8773 0.417348C55.2022 0.140365 54.4788 -0.00145338 53.7485 1.12292e-05ZM16.0499 21.1963C15.4276 20.4695 15.0259 19.5816 14.8917 18.6362C14.7575 17.6909 14.8962 16.7271 15.2918 15.8572C15.6874 14.9874 16.3235 14.2473 17.1258 13.7234C17.9282 13.1995 18.8638 12.9133 19.8235 12.8983H19.8907C21.2087 12.9339 22.4608 13.4797 23.3804 14.4196C24.3 15.3596 24.8145 16.6194 24.8145 17.9309C24.8145 19.2425 24.3 20.5023 23.3804 21.4422C22.4608 22.3822 21.2087 22.928 19.8907 22.9636H19.8235C19.1046 22.9512 18.3966 22.7873 17.7461 22.4827C17.0956 22.178 16.5175 21.7396 16.0499 21.1963ZM44.4955 21.1963H28.1694V37.7517C28.1704 35.5496 29.0505 33.438 30.6163 31.8812C32.1821 30.3244 34.3053 29.4499 36.5191 29.4499H44.4843V37.7517H28.1694V37.8037C28.1694 40.0054 27.2901 42.117 25.7249 43.6739C24.1598 45.2308 22.037 46.1055 19.8235 46.1055V26.8955C20.9969 26.5783 22.1255 26.1155 23.1828 25.518C25.1495 24.376 26.8494 22.8306 28.1694 20.9847C29.8215 18.6024 30.7303 15.7882 30.7822 12.8945H44.4769L44.4955 21.1963Z" fill="black"/>
</g>
<defs>
<clipPath id="clip0_3928_19">
<rect width="246" height="59" fill="white"/>
</clipPath>
</defs>
</svg>
